<svg width="80" height="120" viewBox="0 0 80 120" fill="none" xmlns="http://www.w3.org/2000/svg">
<path d="M63.6428 0.513284C64.3545 0.938798 64.9053 1.60065 65.2052 2.39071C65.505 3.18077 65.5362 4.05234 65.2936 4.86304L52.1959 48.7505H76.3623C77.0725 48.7502 77.7672 48.9644 78.3607 49.3666C78.9543 49.7688 79.4206 50.3415 79.7021 51.0138C79.9836 51.6862 80.0681 52.4289 79.945 53.1502C79.8219 53.8715 79.4967 54.5398 79.0095 55.0727L20.8298 118.819C20.2668 119.436 19.5177 119.839 18.7046 119.961C17.8914 120.083 17.0621 119.917 16.3519 119.491C15.6417 119.065 15.0924 118.403 14.7936 117.614C14.4948 116.824 14.464 115.954 14.7064 115.144L27.8041 71.2493H3.63768C2.92749 71.2495 2.23276 71.0354 1.63925 70.6332C1.04575 70.2309 0.579445 69.6583 0.297913 68.9859C0.0163818 68.3136 -0.0680553 67.5709 0.0550246 66.8496C0.178105 66.1283 0.503313 65.46 0.990505 64.9271L59.1702 1.18075C59.7325 0.564274 60.4804 0.162068 61.2924 0.0395249C62.1045 -0.0830185 62.9328 0.0813075 63.6428 0.505784V0.513284Z" fill="white"/>
</svg>
